<svg xmlns="http://www.w3.org/2000/svg" xmlns:xlink="http://www.w3.org/1999/xlink" width="100" zoomAndPan="magnify" viewBox="0 0 75 74.999997" height="100" preserveAspectRatio="xMidYMid meet" version="1.0"><defs><clipPath id="9cd1559d56"><path d="M 6.914062 0.703125 L 68.414062 0.703125 L 68.414062 74.203125 L 6.914062 74.203125 Z M 6.914062 0.703125 " clip-rule="nonzero"/></clipPath><clipPath id="cfa9d4e642"><path d="M 31 0.703125 L 44 0.703125 L 44 11 L 31 11 Z M 31 0.703125 " clip-rule="nonzero"/></clipPath></defs><g clip-path="url(#9cd1559d56)"><path stroke-linecap="butt" transform="matrix(1.149017, 0, 0, 1.141394, 92.362297, 11.424908)" fill="none" stroke-linejoin="miter" d="M -22.854952 28.255685 C -22.854952 41.92455 -33.934392 53.006119 -47.604362 53.006119 C -61.274332 53.006119 -72.353772 41.92455 -72.353772 28.255685 C -72.353772 14.58682 -61.274332 3.508674 -47.604362 3.508674 C -33.934392 3.508674 -22.854952 14.58682 -22.854952 28.255685 Z M -22.854952 28.255685 " stroke="#000000" stroke-width="4" stroke-opacity="1" stroke-miterlimit="4"/></g><g clip-path="url(#cfa9d4e642)"><path fill="#ff3131" d="M 33.3125 0.707031 L 41.726562 0.707031 C 41.917969 0.707031 42.105469 0.742188 42.28125 0.816406 C 42.460938 0.890625 42.617188 0.992188 42.753906 1.128906 C 42.890625 1.261719 42.992188 1.417969 43.066406 1.597656 C 43.140625 1.773438 43.179688 1.957031 43.179688 2.148438 L 43.179688 8.777344 C 43.179688 8.96875 43.140625 9.152344 43.066406 9.328125 C 42.992188 9.503906 42.890625 9.660156 42.753906 9.796875 C 42.617188 9.929688 42.460938 10.035156 42.28125 10.109375 C 42.105469 10.183594 41.917969 10.21875 41.726562 10.21875 L 33.3125 10.21875 C 33.121094 10.21875 32.933594 10.183594 32.757812 10.109375 C 32.578125 10.035156 32.421875 9.929688 32.285156 9.796875 C 32.148438 9.660156 32.046875 9.503906 31.972656 9.328125 C 31.898438 9.152344 31.859375 8.96875 31.859375 8.777344 L 31.859375 2.148438 C 31.859375 1.957031 31.898438 1.773438 31.972656 1.597656 C 32.046875 1.417969 32.148438 1.261719 32.285156 1.128906 C 32.421875 0.992188 32.578125 0.890625 32.757812 0.816406 C 32.933594 0.742188 33.121094 0.707031 33.3125 0.707031 " fill-opacity="1" fill-rule="nonzero"/></g><path fill="#ff3131" d="M 35.34375 10.003906 L 39.695312 10.003906 L 39.695312 13.316406 L 35.34375 13.316406 Z M 35.34375 10.003906 " fill-opacity="1" fill-rule="nonzero"/><path fill="#ff3131" d="M 9.160156 17.929688 L 13.375 13.742188 C 13.46875 13.648438 13.582031 13.574219 13.707031 13.523438 C 13.832031 13.46875 13.964844 13.445312 14.101562 13.445312 C 14.234375 13.445312 14.367188 13.46875 14.492188 13.523438 C 14.617188 13.574219 14.730469 13.648438 14.828125 13.742188 L 18.167969 17.0625 C 18.265625 17.15625 18.339844 17.269531 18.390625 17.394531 C 18.441406 17.519531 18.46875 17.648438 18.46875 17.785156 C 18.46875 17.917969 18.441406 18.050781 18.390625 18.175781 C 18.339844 18.300781 18.265625 18.410156 18.167969 18.503906 L 13.953125 22.691406 C 13.859375 22.785156 13.746094 22.859375 13.621094 22.910156 C 13.496094 22.964844 13.363281 22.988281 13.226562 22.988281 C 13.09375 22.988281 12.960938 22.964844 12.835938 22.910156 C 12.710938 22.859375 12.597656 22.785156 12.5 22.691406 L 9.160156 19.371094 C 9.0625 19.277344 8.988281 19.164062 8.9375 19.039062 C 8.886719 18.914062 8.859375 18.785156 8.859375 18.648438 C 8.859375 18.515625 8.886719 18.382812 8.9375 18.257812 C 8.988281 18.132812 9.0625 18.023438 9.160156 17.929688 " fill-opacity="1" fill-rule="nonzero"/><path fill="#ff3131" d="M 14.863281 21.570312 L 17.042969 19.40625 L 18.714844 21.066406 L 16.535156 23.230469 Z M 14.863281 21.570312 " fill-opacity="1" fill-rule="nonzero"/><path stroke-linecap="butt" transform="matrix(0.0902862, 0, 0, 0.0896872, 41.96353, 41.14279)" fill="none" stroke-linejoin="miter" d="M -22.872737 28.242506 C -22.829472 31.552622 -23.435185 34.732076 -24.689875 37.780866 C -25.944566 40.829657 -27.718439 43.530015 -30.054759 45.838385 C -32.39108 48.190309 -35.073522 50.019584 -38.102085 51.282654 C -41.130649 52.545725 -44.289008 53.155483 -47.620428 53.155483 C -50.908582 53.155483 -54.066942 52.545725 -57.095505 51.282654 C -60.167334 50.019584 -62.849776 48.190309 -65.142831 45.838385 C -67.479152 43.530015 -69.253024 40.829657 -70.507715 37.780866 C -71.762406 34.732076 -72.368118 31.552622 -72.368118 28.242506 C -72.368118 24.975945 -71.762406 21.796492 -70.507715 18.747701 C -69.253024 15.69891 -67.479152 12.998552 -65.142831 10.646628 C -62.849776 8.338258 -60.167334 6.508983 -57.095505 5.245913 C -54.066942 3.982842 -50.908582 3.32953 -47.620428 3.32953 C -44.289008 3.32953 -41.130649 3.982842 -38.102085 5.245913 C -35.073522 6.508983 -32.39108 8.338258 -30.054759 10.646628 C -27.718439 12.998552 -25.944566 15.69891 -24.689875 18.747701 C -23.435185 21.796492 -22.829472 24.975945 -22.872737 28.242506 Z M -22.872737 28.242506 " stroke="#000000" stroke-width="25.452999" stroke-opacity="1" stroke-miterlimit="4"/><path stroke-linecap="butt" transform="matrix(0.0627467, 0, 0, 0.0623304, 67.497037, 30.719901)" fill-opacity="1" fill="#ff3131" fill-rule="nonzero" stroke-linejoin="miter" d="M -488.897932 156.594039 L -481.925452 -96.96907 L -475.139735 -109.941775 L -468.540781 -96.96907 L -462.066335 156.594039 Z M -488.897932 156.594039 " stroke="#000000" stroke-width="14.136" stroke-opacity="1" stroke-miterlimit="4"/><path stroke-linecap="butt" transform="matrix(0.0627467, 0, 0, 0.0623304, 67.497037, 30.719901)" fill="none" stroke-linejoin="miter" d="M -475.326498 -186.461932 L -475.326498 -142.342202 " stroke="#000000" stroke-width="9.156" stroke-opacity="1" stroke-miterlimit="4"/><path stroke-linecap="butt" transform="matrix(0.0627467, 0, 0, 0.0623304, 67.497037, 30.719901)" fill="none" stroke-linejoin="miter" d="M -81.630397 207.231457 L -125.706431 207.231457 " stroke="#000000" stroke-width="9.156" stroke-opacity="1" stroke-miterlimit="4"/><path stroke-linecap="butt" transform="matrix(0.0627467, 0, 0, 0.0623304, 67.497037, 30.719901)" fill="none" stroke-linejoin="miter" d="M -475.326498 600.924845 L -475.326498 556.867785 " stroke="#000000" stroke-width="9.156" stroke-opacity="1" stroke-miterlimit="4"/><path stroke-linecap="butt" transform="matrix(0.0627467, 0, 0, 0.0623304, 67.497037, 30.719901)" fill="none" stroke-linejoin="miter" d="M -869.022598 207.231457 L -824.946564 207.231457 " stroke="#000000" stroke-width="9.156" stroke-opacity="1" stroke-miterlimit="4"/><path stroke-linecap="butt" transform="matrix(0.0627467, 0, 0, 0.0623304, 67.497037, 30.719901)" fill="none" stroke-linejoin="miter" d="M -278.478448 -133.693732 L -300.516465 -95.527658 " stroke="#000000" stroke-width="9.156" stroke-opacity="1" stroke-miterlimit="4"/><path stroke-linecap="butt" transform="matrix(0.0627467, 0, 0, 0.0623304, 67.497037, 30.719901)" fill="none" stroke-linejoin="miter" d="M -134.359777 10.384762 L -172.521654 32.444627 " stroke="#000000" stroke-width="9.156" stroke-opacity="1" stroke-miterlimit="4"/><path stroke-linecap="butt" transform="matrix(0.0627467, 0, 0, 0.0623304, 67.497037, 30.719901)" fill="none" stroke-linejoin="miter" d="M -134.359777 404.078151 L -172.521654 382.018286 " stroke="#000000" stroke-width="9.156" stroke-opacity="1" stroke-miterlimit="4"/><path stroke-linecap="butt" transform="matrix(0.0627467, 0, 0, 0.0623304, 67.497037, 30.719901)" fill="none" stroke-linejoin="miter" d="M -278.478448 548.219315 L -300.516465 509.990572 " stroke="#000000" stroke-width="9.156" stroke-opacity="1" stroke-miterlimit="4"/><path stroke-linecap="butt" transform="matrix(0.0627467, 0, 0, 0.0623304, 67.497037, 30.719901)" fill="none" stroke-linejoin="miter" d="M -672.174548 548.219315 L -650.136531 509.990572 " stroke="#000000" stroke-width="9.156" stroke-opacity="1" stroke-miterlimit="4"/><path stroke-linecap="butt" transform="matrix(0.0627467, 0, 0, 0.0623304, 67.497037, 30.719901)" fill="none" stroke-linejoin="miter" d="M -816.293219 404.078151 L -778.069088 382.018286 " stroke="#000000" stroke-width="9.156" stroke-opacity="1" stroke-miterlimit="4"/><path stroke-linecap="butt" transform="matrix(0.0627467, 0, 0, 0.0623304, 67.497037, 30.719901)" fill="none" stroke-linejoin="miter" d="M -816.293219 10.384762 L -778.069088 32.444627 " stroke="#000000" stroke-width="9.156" stroke-opacity="1" stroke-miterlimit="4"/><path stroke-linecap="butt" transform="matrix(0.0627467, 0, 0, 0.0623304, 67.497037, 30.719901)" fill="none" stroke-linejoin="miter" d="M -672.174548 -133.693732 L -650.136531 -95.527658 " stroke="#000000" stroke-width="9.156" stroke-opacity="1" stroke-miterlimit="4"/><path stroke-linecap="butt" transform="matrix(0.0627467, 0, 0, 0.0623304, 67.497037, 30.719901)" fill="none" stroke-linejoin="miter" d="M -672.174548 -133.693732 L -650.136531 -95.527658 " stroke="#000000" stroke-width="9.156" stroke-opacity="1" stroke-miterlimit="4"/></svg>